<svg xmlns="http://www.w3.org/2000/svg" xmlns:xlink="http://www.w3.org/1999/xlink" version="1.1" x="0px" y="0px" viewBox="0 0 79.4 107.7" style="enable-background:new 0 0 79.4 107.7;" xml:space="preserve"><style type="text/css">
	.st0{display:none;fill:none;stroke:#000000;stroke-width:3;stroke-miterlimit:10;}
	.st1{fill:none;stroke:#000000;stroke-width:3;stroke-miterlimit:10;}
</style><g><polygon class="st0" points="26.8,26.9 3.8,26.9 26.8,3.9  "></polygon><path class="st1" d="M3.8,26.9v77h71.7V3.9H26.8"></path><g><path d="M59.9,48.9c-0.7-1.3-2.4-2-5.1-2c-1.6,0-3.6,0.2-5.9,0.6c-3.2-3.4-6.6-8.4-9-13.4c2.4-9.9,0.8-11.9,0.3-12.6    c-0.6-0.7-1.3-1.1-2.2-1.1c-0.4,0-0.8,0.1-1.2,0.2c-1,0.3-1.8,1.1-2.2,2.1c-1.2,2.9,0.5,7.9,2.2,11.7c-1.5,6-4,13.2-6.7,19    c-6.7,3.1-10.3,6.1-10.6,9c-0.1,1,0.1,2.6,2,4c0.5,0.4,1.1,0.6,1.7,0.6c1.5,0,3.1-1.2,4.9-3.7c1.3-1.8,2.7-4.4,4.2-7.5    c4.7-2.1,10.6-3.9,15.6-5c2.8,2.7,5.3,4,7.4,4c1.6,0,2.9-0.7,3.9-2.1C60.3,51.2,60.5,50,59.9,48.9z M23.2,64    c-0.8-0.6-0.8-1.1-0.8-1.2c0.1-1,1.6-2.7,5.4-4.8C25,63.2,23.5,63.9,23.2,64z M37.2,23.9c0.1-0.3,0.3-0.4,0.4-0.4    c0.1,0,0.1,0,0.2,0c0.3,0.4,0.6,2,0,5.7C37.2,27,36.8,25,37.2,23.9z M34,51.8c1.8-4.3,3.5-9,4.7-13.4c2,3.6,4.4,7,6.8,9.8    C41.7,49.1,37.7,50.4,34,51.8z M56.8,51c-0.5,0.8-1.1,0.9-1.5,0.9c-0.9,0-2.2-0.6-3.7-1.7c1.2-0.2,2.2-0.2,3.1-0.2    c1.6,0,2.2,0.2,2.4,0.4C57.2,50.3,57.1,50.6,56.8,51z"></path></g></g><g><path d="M24.6,80.2c-0.7,0-1.3,0.1-1.6,0.1v5c0.3,0.1,0.8,0.1,1.3,0.1c2,0,3.3-1,3.3-2.7C27.6,81.1,26.5,80.2,24.6,80.2z"></path><path d="M39,80.2c-0.9,0-1.5,0.1-1.8,0.2V91c0.4,0.1,0.9,0.1,1.5,0.1c3.5,0,5.6-1.9,5.6-5.7C44.3,82.1,42.4,80.2,39,80.2z"></path><path d="M8,71.6v28.3h63.4V71.6H8z M29.1,86c-1.1,1.1-2.8,1.6-4.7,1.6c-0.5,0-1,0-1.3-0.1V93h-2.7V78.4c1-0.2,2.3-0.3,4.1-0.3   c2,0,3.4,0.4,4.4,1.2c0.9,0.7,1.5,1.9,1.5,3.3C30.3,84,29.9,85.2,29.1,86z M44.8,91.2c-1.5,1.3-3.8,2-6.7,2c-1.6,0-2.8-0.1-3.7-0.2   V78.4c1.2-0.2,2.7-0.3,4.3-0.3c2.8,0,4.7,0.6,6.1,1.7c1.4,1.2,2.3,2.9,2.3,5.5C47.1,87.9,46.2,89.9,44.8,91.2z M59.8,80.4h-5.9v4.1   h5.5v2.2h-5.5V93h-2.7V78.2h8.6V80.4z"></path></g><g><path d="M28.3,28.4h-26v-2.1L26.2,2.4l2.1,0V28.4z M7.4,25.4h17.9V7.5L7.4,25.4z"></path></g></svg>